<?xml version="1.0" encoding="UTF-8"?>
<svg version="1.1" xmlns="http://www.w3.org/2000/svg" width="131" height="116">
<path d="M0 0 C11.83692781 9.8641065 18.02667535 23.05015407 19.64453125 38.26171875 C20.11396703 52.64523119 14.73833453 66.24178669 5.3046875 77.06640625 C-6.13805022 87.66599488 -18.63512138 92.59885038 -34.12109375 93.19921875 C-49.12260621 92.57644534 -62.08667455 86.16753468 -72.4453125 75.44140625 C-82.14482246 63.6150158 -85.73274737 50.09999295 -84.89501953 35.08398438 C-83.48197505 20.80843477 -75.39694115 8.27318007 -64.53515625 -0.72265625 C-44.55687772 -14.86336156 -19.78089934 -14.19064518 0 0 Z M-38.5703125 13.19140625 C-40.87736337 15.89380408 -40.87736337 15.89380408 -41.3203125 19.06640625 C-40.47149258 23.14074185 -39.01805654 24.610465 -35.6953125 27.06640625 C-32.31714062 27.61794452 -30.4817573 27.42774575 -27.3828125 26.00390625 C-24.86716942 23.11557531 -24.76042541 20.84295487 -24.6953125 17.06640625 C-26.04093649 14.11884893 -26.78085794 12.52363353 -29.6953125 11.06640625 C-33.74794848 10.52605479 -35.23261481 10.7244123 -38.5703125 13.19140625 Z M-45.6953125 34.06640625 C-46.83884166 36.35346456 -46.79865689 37.65905387 -46.7578125 40.19140625 C-46.7371875 41.47015625 -46.7165625 42.74890625 -46.6953125 44.06640625 C-46.0353125 44.06640625 -45.3753125 44.06640625 -44.6953125 44.06640625 C-44.6953125 42.41640625 -44.6953125 40.76640625 -44.6953125 39.06640625 C-36.67871616 37.94126992 -28.77392665 37.97061241 -20.6953125 38.06640625 C-20.6953125 40.04640625 -20.6953125 42.02640625 -20.6953125 44.06640625 C-20.3653125 44.06640625 -20.0353125 44.06640625 -19.6953125 44.06640625 C-19.61399787 42.62984771 -19.55597691 41.19195795 -19.5078125 39.75390625 C-19.47300781 38.95339844 -19.43820313 38.15289062 -19.40234375 37.328125 C-19.51097082 35.00810712 -19.51097082 35.00810712 -21.01953125 33.3359375 C-24.71304045 30.53782447 -28.61130048 30.86896828 -33.0703125 30.81640625 C-34.37742187 30.790625 -35.68453125 30.76484375 -37.03125 30.73828125 C-40.84605394 31.07990548 -42.69296751 31.74999026 -45.6953125 34.06640625 Z M-42.6953125 40.06640625 C-42.3653125 41.38640625 -42.0353125 42.70640625 -41.6953125 44.06640625 C-35.7553125 44.06640625 -29.8153125 44.06640625 -23.6953125 44.06640625 C-23.6953125 42.74640625 -23.6953125 41.42640625 -23.6953125 40.06640625 C-29.9653125 40.06640625 -36.2353125 40.06640625 -42.6953125 40.06640625 Z M-60.6953125 46.06640625 C-60.6953125 47.38640625 -60.6953125 48.70640625 -60.6953125 50.06640625 C-60.0353125 50.06640625 -59.3753125 50.06640625 -58.6953125 50.06640625 C-58.6953125 54.68640625 -58.6953125 59.30640625 -58.6953125 64.06640625 C-57.3753125 64.06640625 -56.0553125 64.06640625 -54.6953125 64.06640625 C-54.6953125 59.44640625 -54.6953125 54.82640625 -54.6953125 50.06640625 C-40.5053125 50.39640625 -26.3153125 50.72640625 -11.6953125 51.06640625 C-11.2003125 57.99640625 -11.2003125 57.99640625 -10.6953125 65.06640625 C-9.7053125 65.06640625 -8.7153125 65.06640625 -7.6953125 65.06640625 C-7.64632812 64.26976563 -7.59734375 63.473125 -7.546875 62.65234375 C-6.80427559 52.12791767 -6.80427559 52.12791767 -4.6953125 47.06640625 C-5.72059134 45.8185904 -5.72059134 45.8185904 -7.90357971 45.94615173 C-8.87842819 45.94837234 -9.85327667 45.95059296 -10.85766602 45.95288086 C-12.50926476 45.95299416 -12.50926476 45.95299416 -14.19422913 45.95310974 C-15.99107399 45.96085167 -15.99107399 45.96085167 -17.82421875 45.96875 C-19.04358627 45.97016495 -20.2629538 45.9715799 -21.51927185 45.97303772 C-25.4321432 45.97865658 -29.34495831 45.99121229 -33.2578125 46.00390625 C-35.90299397 46.00891882 -38.54817633 46.01348215 -41.19335938 46.01757812 C-47.69402976 46.02863214 -54.19466711 46.04538861 -60.6953125 46.06640625 Z M-42.6953125 52.06640625 C-42.6953125 58.00640625 -42.6953125 63.94640625 -42.6953125 70.06640625 C-41.7053125 70.06640625 -40.7153125 70.06640625 -39.6953125 70.06640625 C-39.6953125 64.12640625 -39.6953125 58.18640625 -39.6953125 52.06640625 C-40.6853125 52.06640625 -41.6753125 52.06640625 -42.6953125 52.06640625 Z M-26.6953125 52.06640625 C-26.6953125 58.00640625 -26.6953125 63.94640625 -26.6953125 70.06640625 C-25.7053125 70.39640625 -24.7153125 70.72640625 -23.6953125 71.06640625 C-22.36936891 65.09966009 -22.6068538 59.1405701 -22.6953125 53.06640625 C-24.0153125 52.73640625 -25.3353125 52.40640625 -26.6953125 52.06640625 Z " fill="#090909" transform="translate(98.6953125,18.93359375)"/>
<path d="M0 0 C2.91691525 -0.05401695 5.83282724 -0.09368066 8.75 -0.125 C9.575 -0.14175781 10.4 -0.15851562 11.25 -0.17578125 C12.04921875 -0.18222656 12.8484375 -0.18867187 13.671875 -0.1953125 C14.4050293 -0.20578613 15.13818359 -0.21625977 15.89355469 -0.22705078 C18.33622453 0.03624117 19.90995879 0.72541935 22 2 C23.99068509 4.9296875 24.22771976 7.25752832 24.125 10.75 C24.10695312 11.54921875 24.08890625 12.3484375 24.0703125 13.171875 C24.04710937 13.77515625 24.02390625 14.3784375 24 15 C25.39025391 14.98259766 25.39025391 14.98259766 26.80859375 14.96484375 C28.00613281 14.95582031 29.20367187 14.94679688 30.4375 14.9375 C31.63246094 14.92589844 32.82742187 14.91429687 34.05859375 14.90234375 C37 15 37 15 38 16 C38.04063832 17.66617115 38.042721 19.33388095 38 21 C37.34 21 36.68 21 36 21 C36 25.95 36 30.9 36 36 C33.69 36 31.38 36 29 36 C29 31.38 29 26.76 29 22 C26.03 22 23.06 22 20 22 C20 28.27 20 34.54 20 41 C17.525 41.495 17.525 41.495 15 42 C14 41 14 41 13.88647461 39.05053711 C13.89171143 38.2178833 13.89694824 37.38522949 13.90234375 36.52734375 C13.90484131 35.71773193 13.90733887 34.90812012 13.90991211 34.07397461 C13.91901611 33.03893799 13.92812012 32.00390137 13.9375 30.9375 C13.958125 27.658125 13.97875 24.37875 14 21 C5.42 21 -3.16 21 -12 21 C-12 25.95 -12 30.9 -12 36 C-13.98 36 -15.96 36 -18 36 C-18 31.05 -18 26.1 -18 21 C-18.99 20.67 -19.98 20.34 -21 20 C-20.67 18.35 -20.34 16.7 -20 15 C-14.39 15 -8.78 15 -3 15 C-3.33 13.02 -3.66 11.04 -4 9 C-1.12594877 7.36836664 0.92414227 6.75055075 4.22265625 6.76953125 C5.00833984 6.77146484 5.79402344 6.77339844 6.60351562 6.77539062 C7.82071289 6.79375977 7.82071289 6.79375977 9.0625 6.8125 C10.28549805 6.8134668 10.28549805 6.8134668 11.53320312 6.81445312 C15.01400321 6.84019446 17.66562336 6.88854112 21 8 C20.80528889 6.05000871 20.80528889 6.05000871 20 4 C16.33621366 1.38300976 12.08572125 1.55884684 7.75 1.375 C7.00492188 1.33632813 6.25984375 1.29765625 5.4921875 1.2578125 C3.6618476 1.16394892 1.83095857 1.08090282 0 1 C0 0.67 0 0.34 0 0 Z M-1 10 C-0.67 11.32 -0.34 12.64 0 14 C5.94 14 11.88 14 18 14 C18 12.68 18 11.36 18 10 C11.73 10 5.46 10 -1 10 Z M-19 16 C-19 17.32 -19 18.64 -19 20 C-18.34 20 -17.68 20 -17 20 C-17 24.62 -17 29.24 -17 34 C-15.68 34 -14.36 34 -13 34 C-13 29.38 -13 24.76 -13 20 C1.19 20.33 15.38 20.66 30 21 C30.495 27.93 30.495 27.93 31 35 C31.99 35 32.98 35 34 35 C34.04898438 34.20335938 34.09796875 33.40671875 34.1484375 32.5859375 C34.89103691 22.06151142 34.89103691 22.06151142 37 17 C35.97472116 15.75218415 35.97472116 15.75218415 33.79173279 15.87974548 C32.81688431 15.88196609 31.84203583 15.88418671 30.83764648 15.88647461 C29.18604774 15.88658791 29.18604774 15.88658791 27.50108337 15.88670349 C25.70423851 15.89444542 25.70423851 15.89444542 23.87109375 15.90234375 C22.65172623 15.9037587 21.4323587 15.90517365 20.17604065 15.90663147 C16.2631693 15.91225033 12.35035419 15.92480604 8.4375 15.9375 C5.79231853 15.94251257 3.14713617 15.9470759 0.50195312 15.95117188 C-5.99871726 15.96222589 -12.49935461 15.97898236 -19 16 Z M15 22 C15 27.94 15 33.88 15 40 C15.99 40.33 16.98 40.66 18 41 C19.32594359 35.03325384 19.0884587 29.07416385 19 23 C17.68 22.67 16.36 22.34 15 22 Z " fill="#414341" transform="translate(57,49)"/>
<path d="M0 0 C0 4.62 0 9.24 0 14 C0.99 14 1.98 14 3 14 C2.97679688 13.16855469 2.95359375 12.33710937 2.9296875 11.48046875 C2.91164063 10.39378906 2.89359375 9.30710937 2.875 8.1875 C2.85179688 7.10855469 2.82859375 6.02960938 2.8046875 4.91796875 C3 2 3 2 5 -1 C5 4.28 5 9.56 5 15 C2.69 15 0.38 15 -2 15 C-2 10.38 -2 5.76 -2 1 C-4.97 1 -7.94 1 -11 1 C-11 7.27 -11 13.54 -11 20 C-12.65 20.33 -14.3 20.66 -16 21 C-17 20 -17 20 -17.11352539 18.05053711 C-17.10567017 16.8015564 -17.10567017 16.8015564 -17.09765625 15.52734375 C-17.09443359 14.62822266 -17.09121094 13.72910156 -17.08789062 12.80273438 C-17.07951172 11.85720703 -17.07113281 10.91167969 -17.0625 9.9375 C-17.05798828 8.98810547 -17.05347656 8.03871094 -17.04882812 7.06054688 C-17.0370011 4.70696935 -17.02052025 2.35351523 -17 0 C-14.54203147 -0.19436491 -12.08390706 -0.3807742 -9.625 -0.5625 C-8.92632812 -0.61857422 -8.22765625 -0.67464844 -7.5078125 -0.73242188 C-2.2265625 -1.11328125 -2.2265625 -1.11328125 0 0 Z M-16 1 C-16 6.94 -16 12.88 -16 19 C-15.01 19.33 -14.02 19.66 -13 20 C-11.67405641 14.03325384 -11.9115413 8.07416385 -12 2 C-13.32 1.67 -14.64 1.34 -16 1 Z " fill="#212221" transform="translate(88,70)"/>
<path d="M0 0 C2.91691525 -0.05401695 5.83282724 -0.09368066 8.75 -0.125 C9.575 -0.14175781 10.4 -0.15851562 11.25 -0.17578125 C12.04921875 -0.18222656 12.8484375 -0.18867187 13.671875 -0.1953125 C14.4050293 -0.20578613 15.13818359 -0.21625977 15.89355469 -0.22705078 C18.33622453 0.03624117 19.90995879 0.72541935 22 2 C23.99068509 4.9296875 24.22771976 7.25752832 24.125 10.75 C24.10695313 11.54921875 24.08890625 12.3484375 24.0703125 13.171875 C24.04710938 13.77515625 24.02390625 14.3784375 24 15 C25.39025391 14.98259766 25.39025391 14.98259766 26.80859375 14.96484375 C28.00613281 14.95582031 29.20367187 14.94679688 30.4375 14.9375 C31.63246094 14.92589844 32.82742187 14.91429687 34.05859375 14.90234375 C37 15 37 15 38 16 C38.04063832 17.66617115 38.042721 19.33388095 38 21 C37.34 21 36.68 21 36 21 C36 19.68 36 18.36 36 17 C23.13 16.505 23.13 16.505 10 16 C10 15.67 10 15.34 10 15 C13.465 14.505 13.465 14.505 17 14 C17.33 12.35 17.66 10.7 18 9 C18.99 8.67 19.98 8.34 21 8 C20.80528889 6.05000871 20.80528889 6.05000871 20 4 C16.33621366 1.38300976 12.08572125 1.55884684 7.75 1.375 C7.00492187 1.33632813 6.25984375 1.29765625 5.4921875 1.2578125 C3.6618476 1.16394892 1.83095857 1.08090282 0 1 C0 0.67 0 0.34 0 0 Z " fill="#313231" transform="translate(57,49)"/>
<path d="M0 0 C6.6 0.33 13.2 0.66 20 1 C20 1.33 20 1.66 20 2 C15.27382588 2.76262664 10.75795287 3.11892423 5.97265625 3.09765625 C4.68681641 3.09443359 3.40097656 3.09121094 2.07617188 3.08789062 C0.73828055 3.07953802 -0.59961007 3.07107311 -1.9375 3.0625 C-3.30273274 3.05747659 -4.66796726 3.05291517 -6.03320312 3.04882812 C-9.35551457 3.03708851 -12.67773408 3.02066679 -16 3 C-16.33 4.32 -16.66 5.64 -17 7 C-17.5625 5.0625 -17.5625 5.0625 -18 3 C-17 2 -17 2 -13.18359375 1.90234375 C-11.60153318 1.90901911 -10.01948841 1.92098125 -8.4375 1.9375 C-7.63119141 1.94201172 -6.82488281 1.94652344 -5.99414062 1.95117188 C-3.99606244 1.96299482 -1.99802217 1.98093086 0 2 C0 1.34 0 0.68 0 0 Z " fill="#252525" transform="translate(54,62)"/>
<path d="M0 0 C1.32 0 2.64 0 4 0 C4 0.66 4 1.32 4 2 C3.34 2 2.68 2 2 2 C2.33 2.99 2.66 3.98 3 5 C2.01 5 1.02 5 0 5 C-0.5625 3.0625 -0.5625 3.0625 -1 1 C-0.67 0.67 -0.34 0.34 0 0 Z " fill="#343634" transform="translate(54,57)"/>
</svg>
